<?xml version="1.0" encoding="UTF-8" standalone="no"?>
<!-- Created with Inkscape (http://www.inkscape.org/) -->

<svg
   xmlns:dc="http://purl.org/dc/elements/1.1/"
   xmlns:cc="http://creativecommons.org/ns#"
   xmlns:rdf="http://www.w3.org/1999/02/22-rdf-syntax-ns#"
   xmlns:svg="http://www.w3.org/2000/svg"
   xmlns="http://www.w3.org/2000/svg"
   xmlns:sodipodi="http://sodipodi.sourceforge.net/DTD/sodipodi-0.dtd"
   xmlns:inkscape="http://www.inkscape.org/namespaces/inkscape"
   width="297mm"
   height="210mm"
   viewBox="0 0 1052.3622 744.09448"
   id="svg2"
   version="1.1"
   inkscape:version="0.91 r13725"
   sodipodi:docname="logo.svg"
   inkscape:export-filename="D:\workspace\PyProjects\konfoo\artwork\logo.png"
   inkscape:export-xdpi="90"
   inkscape:export-ydpi="90">
  <title
     id="title3348">Logo</title>
  <defs
     id="defs4" />
  <sodipodi:namedview
     id="base"
     pagecolor="#ffffff"
     bordercolor="#666666"
     borderopacity="1.0"
     inkscape:pageopacity="0.0"
     inkscape:pageshadow="2"
     inkscape:zoom="0.35"
     inkscape:cx="1031.234"
     inkscape:cy="520"
     inkscape:document-units="px"
     inkscape:current-layer="layer1"
     showgrid="false"
     inkscape:window-width="1680"
     inkscape:window-height="988"
     inkscape:window-x="1358"
     inkscape:window-y="-8"
     inkscape:window-maximized="1"
     inkscape:snap-text-baseline="true"
     showguides="false"
     inkscape:snap-grids="true"
     units="mm" />
  <metadata
     id="metadata7">
    <rdf:RDF>
      <cc:Work
         rdf:about="">
        <dc:format>image/svg+xml</dc:format>
        <dc:type
           rdf:resource="http://purl.org/dc/dcmitype/StillImage" />
        <dc:title>Logo</dc:title>
      </cc:Work>
    </rdf:RDF>
  </metadata>
  <g
     inkscape:label="Ebene 1"
     inkscape:groupmode="layer"
     id="layer1"
     transform="translate(0,-308.26771)">
    <flowRoot
       xml:space="preserve"
       id="flowRoot3340"
       style="font-style:normal;font-weight:normal;font-size:40px;line-height:125%;font-family:sans-serif;letter-spacing:0px;word-spacing:0px;fill:#000000;fill-opacity:1;stroke:none;stroke-width:1px;stroke-linecap:butt;stroke-linejoin:miter;stroke-opacity:1"><flowRegion
         id="flowRegion3342"><rect
           id="rect3344"
           width="1265.7142"
           height="1017.1429"
           x="-988.57141"
           y="-481.92352" /></flowRegion><flowPara
         id="flowPara3346" /></flowRoot>    <g
       id="search_1_"
       transform="matrix(11.170995,0,0,9.4016214,275.43332,376.0775)"
       style="fill:#1a1a1a">
      <path
         id="path3350"
         d="m 21.530287,-2.5224691 c -6.627,0 -11.9999999,5.7147931 -11.9999999,12.7633571 0,2.15488 0.5069999,4.18319 1.3949999,5.964742 l -8.3439999,8.872661 0.007,0.0064 c -0.652,0.681757 -1.058,1.626246 -1.058,2.676032 0,2.072982 1.58,3.75349 3.529,3.75349 0.985,0 1.874,-0.431826 2.515,-1.126366 l -0.002,-0.0021 8.3409999,-8.870533 c 1.676,0.947679 3.586,1.489058 5.617,1.489058 6.627,0 12,-5.714793 12,-12.763357 0,-7.048591 -5.373,-12.7633841 -12,-12.7633841 z M 6.3252871,29.058331 c -0.322,0.355247 -0.768,0.577542 -1.266,0.577542 -0.975,0 -1.765,-0.839191 -1.765,-1.876214 0,-0.529679 0.21,-1.002987 0.543,-1.346534 l -0.009,-0.0085 8.0659999,-8.579103 c 0.705,1.011496 1.545,1.904931 2.494,2.656906 L 6.3252871,29.058331 Z M 21.530287,20.878083 c -5.522,0 -10,-4.763923 -10,-10.636131 0,-5.8732719 4.478,-10.63613126 10,-10.63613126 5.521,0 10,4.76285936 10,10.63613126 0,5.872208 -4.479,10.636131 -10,10.636131 z"
         inkscape:connector-curvature="0"
         style="fill:#1a1a1a" />
    </g>
    <text
       xml:space="preserve"
       style="font-style:normal;font-variant:normal;font-weight:normal;font-stretch:normal;font-size:153.74301147px;line-height:100%;font-family:'Miriam Fixed';-inkscape-font-specification:'Miriam Fixed, Normal';text-align:start;letter-spacing:21.35319519px;word-spacing:0px;writing-mode:lr-tb;text-anchor:start;fill:#000000;fill-opacity:1;stroke:none;stroke-width:1px;stroke-linecap:butt;stroke-linejoin:miter;stroke-opacity:0.33000004"
       x="32.392429"
       y="411.08597"
       id="text3336"
       sodipodi:linespacing="100%"
       transform="scale(0.76778096,1.3024548)"><tspan
         sodipodi:role="line"
         id="tspan3338"
         x="32.392429"
         y="411.08597">KonF<tspan
   style="letter-spacing:0px;fill:#000000;stroke:none;stroke-opacity:0.33000004"
   id="tspan5594"> 00</tspan></tspan></text>
  </g>
</svg>
